<svg xmlns="http://www.w3.org/2000/svg" viewBox="0 0 24 24" aria-hidden="true" focusable="false" class="BaseSvg-sc-9y47q5-0 UserCircledIcon___StyledBaseSvg-sc-12uuth1-0 dixRWi"><path d="M12 2a10 10 0 1010 10A10 10 0 0012 2zm0 18.7a8.7 8.7 0 01-5.62-2.06l.07-.09c1.19-1.48 2.9-2.12 5.55-2.12s4.38.63 5.58 2.09l.07.09A8.66 8.66 0 0112 20.7zm6.51-2.95l-.05-.06C17 16 14.87 15.16 12 15.16S7 16 5.53 17.69v.06a8.71 8.71 0 1113 0z M12 6a4 4 0 104 4 4 4 0 00-4-4zm0 6.7a2.7 2.7 0 112.7-2.7 2.7 2.7 0 01-2.7 2.7z"/></svg>