<?xml version="1.0" encoding="utf-8"?>
<!-- Generator: Adobe Illustrator 23.0.6, SVG Export Plug-In . SVG Version: 6.00 Build 0)  -->
<svg version="1.1" id="Laag_1" focusable="false" xmlns="http://www.w3.org/2000/svg" xmlns:xlink="http://www.w3.org/1999/xlink"
	 x="0px" y="0px" viewBox="0 0 24 24" style="enable-background:new 0 0 24 24;" xml:space="preserve">
<style type="text/css">
	.st0{fill:none;}
	.st1{fill:#FFFFFF;}
</style>
<path class="st0" d="M8.8,9.5"/>
<g id="F9A6k6.tif">
	<g>
		<path class="st1" d="M12,23.5C5.6,23.5,0.3,18.3,0.3,12C0.3,5.6,5.6,0.3,12,0.4c6.5,0,11.7,5.2,11.7,11.6
			C23.7,18.4,18.4,23.5,12,23.5z M19.6,18.6C23,15,23.4,8.9,19.2,4.7C15.3,0.9,9,0.8,4.9,4.7c-4.2,4-4,10.2-0.5,13.9
			C5.5,17.3,7,16.4,8.6,16c1.8-0.5,3.7-0.5,5.5-0.2c1.5,0.2,3,0.7,4.2,1.7C18.8,17.8,19.2,18.2,19.6,18.6z M5.4,19.6
			c4.3,3.6,10.2,2.7,13.1-0.1c-0.7-1-2-1.8-3.3-2.1c-2.1-0.5-4.2-0.5-6.4,0C7.5,17.7,6.3,18.5,5.4,19.6z"/>
		<path class="st1" d="M12,14.3c-2.6,0-4.7-2.1-4.7-4.6C7.3,7.1,9.4,5,12,5c2.6,0,4.7,2.1,4.7,4.7C16.7,12.2,14.6,14.3,12,14.3z
			 M12,12.8c1.7,0,3.2-1.3,3.2-3.1c0-1.8-1.3-3.2-3.1-3.2c-1.8,0-3.2,1.3-3.2,3.1C8.8,11.3,10.2,12.7,12,12.8z"/>
	</g>
</g>
</svg>
