<svg id="Laag_1" data-name="Laag 1" xmlns="http://www.w3.org/2000/svg" viewBox="0 0 24 12.05"><defs><style>.cls-1{fill:none;}.cls-2{fill:#3067b0;}</style></defs><path class="cls-1" d="M0,0" transform="translate(0 -5.97)"/><path class="cls-2" d="M12,18a1.62,1.62,0,0,1-.87-.54Q5.94,12.84.78,8.23C.22,7.72-.38,7.19.3,6.41s1.39-.37,2,.17c3,2.69,6,5.39,9,8.13.6.56.88.46,1.42,0,2.8-2.55,5.63-5,8.46-7.55.26-.23.51-.46.78-.67a1.2,1.2,0,0,1,1.75,0c.58.61.23,1.17-.31,1.66L13.8,16.81C13.27,17.28,12.84,17.92,12,18Z" transform="translate(0 -5.97)"/></svg>