<svg xmlns:xlink="http://www.w3.org/1999/xlink" xmlns="http://www.w3.org/2000/svg" class="BaseSvg-sc-7kwuzt-0 ChevronIcon___StyledBaseSvg-sc-14anh03-0 etNlaF sc-1xf8m2h-1 UwmAG" viewBox="0 0 24 24" width="24" height="24" aria-hidden="true" focusable="false"><path d="M6.99 9.16a.6.6 0 00-.4-.16.6.6 0 00-.42.16.5.5 0 00-.17.37c0 .14.07.28.17.37l5.45 4.92c.04.06.09.1.15.15.14.05.3.05.44 0a.6.6 0 00.18-.11l5.45-4.92a.5.5 0 00.16-.37.5.5 0 00-.16-.37.6.6 0 00-.41-.16.6.6 0 00-.41.16l-5.03 4.46-5-4.5z" fill="#FFFFFF"></path></svg>