<?xml version="1.0" encoding="utf-8"?>
<!-- Generator: Adobe Illustrator 23.0.6, SVG Export Plug-In . SVG Version: 6.00 Build 0)  -->
<svg version="1.1" id="Laag_1" focusable="false" xmlns="http://www.w3.org/2000/svg" xmlns:xlink="http://www.w3.org/1999/xlink"
	 x="0px" y="0px" viewBox="0 0 24 24" style="enable-background:new 0 0 24 24;" xml:space="preserve">
<style type="text/css">
	.st0{fill:none;}
	.st1{fill:#FFFFFF;}
</style>
<path class="st0" d="M8.8,9.5"/>
<g id="HUGvp5.tif">
	<g>
		<path class="st1" d="M14.9,16.1c-3.7,2.8-8.5,2-11.1-1.2C1.3,11.9,1.4,7.3,4.1,4.5C7,1.4,11.4,1,14.8,3.4
			c3.1,2.3,4.6,7.3,1.5,11.4c0.1,0.1,0.2,0.1,0.3,0.2c1.8,1.8,3.6,3.6,5.5,5.5c0.6,0.6,0.4,1.4-0.3,1.7c-0.4,0.1-0.8,0-1.1-0.3
			c-1.8-1.8-3.5-3.5-5.3-5.3C15.2,16.5,15.1,16.3,14.9,16.1z M10,3.8c-3.3,0-6,2.7-6,6c0,3.3,2.7,6.1,6.1,6c3.3,0,6-2.7,6-6.1
			C16,6.5,13.3,3.8,10,3.8z"/>
	</g>
</g>
</svg>
